<svg xmlns="http://www.w3.org/2000/svg" viewBox="0 0 328.94 483.87"><defs><style>.cls-1{fill:#2764ae;}.cls-2{fill:#4daf50;}</style></defs><g id="Camada_2" data-name="Camada 2"><g id="Camada_1-2" data-name="Camada 1"><circle class="cls-1" cx="164.26" cy="241.06" r="101"/><path class="cls-1" d="M83.79,35.65c3.92.53,6,4.31,3.95,7.25C75,61.32,37,118.24,13.71,172.28-6.45,219-4.57,270.85,20.64,315.67c2.73,4.86,7.14,10.43,11.74,15.65A122.55,122.55,0,0,0,87,366.57a183.55,183.55,0,0,0,95.91,4.07c8.73-2,16-4.41,19.83-7.37,1.57-1.22.31-3.45-1.77-3.12s-5.08.62-8.61.9c-33.54,2.62-67.21-5.23-94.11-22.73-18.84-12.25-37.33-30.43-48.18-57.21a118.67,118.67,0,0,1-5.33-73.43C53.69,171.54,79.18,119.19,151.83,106l42.92-55.9a10.69,10.69,0,0,1,9.8-3.78c18.51,2.38,37.84,4.53,37.86,4.53h0L180.47,5.69s-11.61-8-29-5S43.09,30.08,43.05,30.09h0Z"/><path class="cls-2" d="M245.15,448.36c-3.91-.54-6-4.3-3.94-7.23,12.69-18.35,50.69-75.05,74-128.88,20.16-46.51,18.28-98.19-6.93-142.85-2.73-4.83-7.13-10.38-11.74-15.59a122.63,122.63,0,0,0-54.64-35.11A184.18,184.18,0,0,0,146,114.64c-8.73,2-16,4.39-19.83,7.34-1.57,1.22-.3,3.44,1.77,3.11s5.08-.62,8.61-.89c33.55-2.61,67.21,5.21,94.12,22.64,18.83,12.21,37.32,30.31,48.17,57A117.75,117.75,0,0,1,284.18,277c-8.93,36-34.41,88.15-107.06,101.32L134.19,434a10.71,10.71,0,0,1-9.8,3.76c-18.51-2.37-37.84-4.51-37.85-4.52h0l61.93,44.95s11.61,8,29,5,108.35-29.29,108.39-29.3h0Z"/></g></g></svg>